<svg xmlns="http://www.w3.org/2000/svg" version="1.1" xmlns:xlink="http://www.w3.org/1999/xlink" xmlns:svgjs="http://svgjs.com/svgjs" width="1920" height="1080" preserveAspectRatio="none" viewBox="0 0 1920 1080"><g mask="url(&quot;#SvgjsMask1026&quot;)" fill="none"><rect width="1920" height="1080" x="0" y="0" fill="#0e2a47"></rect><path d="M346.43 1151.61C550.92 1097 610.88 542.02 923.75 532.35 1236.62 522.68 1212.41 667.35 1501.07 667.35 1789.73 667.35 1930.17 533.24 2078.39 532.35" stroke="rgba(51,121,194,0.58)" stroke-width="2"></path><path d="M714.64 1158.63C927.45 979.47 770.24 168.29 1157.18 137.67 1544.11 107.05 1814.49 352.12 2042.25 353.67" stroke="rgba(51,121,194,0.58)" stroke-width="2"></path><path d="M89.33 1184.65C279.45 1166.19 400.1 765.1 726.73 763.35 1053.36 761.6 1045.43 898.35 1364.13 898.35 1682.83 898.35 1838.65 764.09 2001.53 763.35" stroke="rgba(51,121,194,0.58)" stroke-width="2"></path><path d="M339.22 1290.77C645.35 1226.81 781.39 435.61 1249.39 432.56 1717.4 429.51 1909.04 843.71 2159.57 853.76" stroke="rgba(51,121,194,0.58)" stroke-width="2"></path><path d="M331.35 1224.44C502.93 1211.23 621.54 871.46 921.78 870.54 1222.02 869.62 1217 1005.54 1512.21 1005.54 1807.42 1005.54 1951.23 871.4 2102.64 870.54" stroke="rgba(51,121,194,0.58)" stroke-width="2"></path></g><defs><mask id="SvgjsMask1026"><rect width="1920" height="1080" fill="#ffffff"></rect></mask></defs></svg>