<svg width="819.78125px" height="122px" xmlns="http://www.w3.org/2000/svg" viewBox="-159.890625 14 819.78125 122" style="background: rgba(0, 0, 0, 0);" preserveAspectRatio="xMidYMid"><defs><filter id="editing-hole" x="-100%" y="-100%" width="300%" height="300%"><feFlood flood-color="#000000" result="black"></feFlood><feMorphology operator="dilate" radius="2" in="SourceGraphic" result="erode"></feMorphology><feGaussianBlur in="erode" stdDeviation="4" result="blur"></feGaussianBlur><feOffset in="blur" dx="2" dy="2" result="offset"></feOffset><feComposite operator="atop" in="offset" in2="black" result="merge"></feComposite><feComposite operator="in" in="merge" in2="SourceGraphic" result="inner-shadow"></feComposite></filter></defs><g filter="url(#editing-hole)"><g transform="translate(-43.985005378723145, 104.76000022888184)"><path d="M27.01-10.82L27.01-10.82L27.01-10.82Q28.61-9.73 28.61-7.33L28.61-7.33L28.61-7.33Q28.61-4.93 27.39-3.39L27.39-3.39L27.39-3.39Q26.18-1.86 24.19-0.83L24.19-0.83L24.19-0.83Q20.10 1.28 15.68 1.28L15.68 1.28L15.68 1.28Q11.26 1.28 8.67 0.32L8.67 0.32L8.67 0.32Q6.08-0.64 4.35-2.43L4.35-2.43L4.35-2.43Q0.96-5.82 0.96-12.03L0.96-12.03L0.96-12.03Q0.96-21.70 6.21-27.58L6.21-27.58L6.21-27.58Q11.84-33.92 21.63-33.92L21.63-33.92L21.63-33.92Q27.71-33.92 30.72-31.36L30.72-31.36L30.72-31.36Q32.96-29.44 32.96-26.30L32.96-26.30L32.96-26.30Q32.96-15.04 13.50-15.04L13.50-15.04L13.50-15.04Q13.25-13.38 13.25-11.97L13.25-11.97L13.25-11.97Q13.25-9.02 14.56-7.90L14.56-7.90L14.56-7.90Q15.87-6.78 18.30-6.78L18.30-6.78L18.30-6.78Q20.74-6.78 23.33-7.90L23.33-7.90L23.33-7.90Q25.92-9.02 27.01-10.82ZM13.95-17.79L13.95-17.79L13.95-17.79Q18.50-17.79 21.12-20.61L21.12-20.61L21.12-20.61Q23.74-23.30 23.74-27.58L23.74-27.58L23.74-27.58Q23.74-29.06 23.20-29.86L23.20-29.86L23.20-29.86Q22.66-30.66 21.57-30.66L21.57-30.66L21.57-30.66Q20.48-30.66 19.55-30.24L19.55-30.24L19.55-30.24Q18.62-29.82 17.66-28.42L17.66-28.42L17.66-28.42Q15.30-25.22 13.95-17.79ZM55.30-33.92L55.30-33.92L55.30-33.92Q57.60-33.92 59.39-33.41L59.39-33.41L59.39-33.41Q59.46-33.66 59.58-34.37L59.58-34.37L59.90-36.35L59.90-36.35Q60.16-37.63 60.54-39.74L60.54-39.74L61.57-44.80L74.30-46.08L67.20-8.96L67.20-8.96Q67.14-8.58 67.14-7.94L67.14-7.94L67.14-6.91L67.14-6.91Q67.14-5.50 67.84-4.45L67.84-4.45L67.84-4.45Q68.54-3.39 69.70-3.39L69.70-3.39L69.70-3.39Q68.42-0.38 64.51 0.90L64.51 0.90L64.51 0.90Q63.17 1.28 61.28 1.28L61.28 1.28L61.28 1.28Q59.39 1.28 57.66 0.29L57.66 0.29L57.66 0.29Q55.94-0.70 55.42-2.37L55.42-2.37L55.42-2.37Q54.40-0.70 52.35 0.29L52.35 0.29L52.35 0.29Q50.30 1.28 47.33 1.28L47.33 1.28L47.33 1.28Q44.35 1.28 41.89 0.51L41.89 0.51L41.89 0.51Q39.42-0.26 37.89-1.92L37.89-1.92L37.89-1.92Q35.07-5.18 35.07-12.61L35.07-12.61L35.07-12.61Q35.07-22.21 40.70-28.03L40.70-28.03L40.70-28.03Q46.34-33.92 55.30-33.92ZM54.85-30.08L54.85-30.08L54.85-30.08Q52.48-30.08 51.20-27.52L51.20-27.52L51.20-27.52Q49.92-24.96 48.61-18.62L48.61-18.62L48.61-18.62Q47.30-12.29 47.30-6.59L47.30-6.59L47.30-6.59Q47.30-2.69 49.60-2.69L49.60-2.69L49.60-2.69Q51.65-2.69 53.09-4.74L53.09-4.74L53.09-4.74Q54.53-6.78 55.10-10.18L55.10-10.18L58.56-28.93L58.56-28.93Q57.22-30.08 54.85-30.08ZM90.50-3.52L90.50-3.52L90.50-3.52Q88.51 1.28 82.18 1.28L82.18 1.28L82.18 1.28Q78.91 1.28 76.86-0.96L76.86-0.96L76.86-0.96Q75.14-2.94 75.14-4.93L75.14-4.93L75.14-4.93Q75.14-10.11 77.50-20.22L77.50-20.22L79.87-32.64L92.86-33.92L88.96-13.70L88.96-13.70Q87.87-8.96 87.87-7.30L87.87-7.30L87.87-7.30Q87.87-3.65 90.50-3.52ZM81.02-41.54L81.02-41.54L81.02-41.54Q81.02-44.03 83.10-45.38L83.10-45.38L83.10-45.38Q85.18-46.72 88.19-46.72L88.19-46.72L88.19-46.72Q91.20-46.72 93.02-45.38L93.02-45.38L93.02-45.38Q94.85-44.03 94.85-41.54L94.85-41.54L94.85-41.54Q94.85-39.04 92.83-37.76L92.83-37.76L92.83-37.76Q90.82-36.48 87.81-36.48L87.81-36.48L87.81-36.48Q84.80-36.48 82.91-37.76L82.91-37.76L82.91-37.76Q81.02-39.04 81.02-41.54ZM96.96-6.40L96.96-6.40L96.96-6.40Q96.96-8.13 97.86-12.48L97.86-12.48L101.25-29.76L97.47-29.76L97.73-31.68L97.73-31.68Q105.41-33.98 112.83-39.62L112.83-39.62L115.90-39.62L114.37-32.64L119.36-32.64L118.78-29.76L113.86-29.76L110.59-12.48L110.59-12.48Q109.76-8.51 109.76-7.17L109.76-7.17L109.76-7.17Q109.76-4.10 112.45-3.46L112.45-3.46L112.45-3.46Q111.81-1.28 109.50 0L109.50 0L109.50 0Q107.20 1.28 103.94 1.28L103.94 1.28L103.94 1.28Q100.67 1.28 98.82-0.77L98.82-0.77L98.82-0.77Q96.96-2.82 96.96-6.40ZM134.40-3.52L134.40-3.52L134.40-3.52Q132.42 1.28 126.08 1.28L126.08 1.28L126.08 1.28Q122.82 1.28 120.77-0.96L120.77-0.96L120.77-0.96Q119.04-2.94 119.04-4.93L119.04-4.93L119.04-4.93Q119.04-10.11 121.41-20.22L121.41-20.22L123.78-32.64L136.77-33.92L132.86-13.70L132.86-13.70Q131.78-8.96 131.78-7.30L131.78-7.30L131.78-7.30Q131.78-3.65 134.40-3.52ZM124.93-41.54L124.93-41.54L124.93-41.54Q124.93-44.03 127.01-45.38L127.01-45.38L127.01-45.38Q129.09-46.72 132.10-46.72L132.10-46.72L132.10-46.72Q135.10-46.72 136.93-45.38L136.93-45.38L136.93-45.38Q138.75-44.03 138.75-41.54L138.75-41.54L138.75-41.54Q138.75-39.04 136.74-37.76L136.74-37.76L136.74-37.76Q134.72-36.48 131.71-36.48L131.71-36.48L131.71-36.48Q128.70-36.48 126.82-37.76L126.82-37.76L126.82-37.76Q124.93-39.04 124.93-41.54ZM166.91 1.28L166.91 1.28L166.91 1.28Q159.17 1.28 159.17-4.74L159.17-4.74L159.17-4.74Q159.23-6.40 159.74-9.22L159.74-9.22L160.90-15.10L160.90-15.10Q162.62-23.42 162.62-25.28L162.62-25.28L162.62-25.28Q162.62-28.99 160.45-28.99L160.45-28.99L160.45-28.99Q156.80-28.99 154.88-19.46L154.88-19.46L151.10 0L138.24 1.28L144.90-32.70L155.39-33.92L154.37-27.65L154.37-27.65Q157.38-33.92 166.59-33.92L166.59-33.92L166.59-33.92Q171.07-33.92 172.96-32.03L172.96-32.03L172.96-32.03Q174.85-30.14 174.85-25.92L174.85-25.92L174.85-25.92Q174.85-21.95 172.80-12.67L172.80-12.67L172.80-12.67Q171.84-8.51 171.84-6.94L171.84-6.94L171.84-6.94Q171.84-5.38 172.70-4.48L172.70-4.48L172.70-4.48Q173.57-3.58 174.85-3.46L174.85-3.46L174.85-3.46Q174.21-1.28 172 0L172 0L172 0Q169.79 1.28 166.91 1.28ZM184.51-26.75L184.51-26.75L184.51-26.75Q186.69-29.82 189.98-31.87L189.98-31.87L189.98-31.87Q193.28-33.92 197.31-33.92L197.31-33.92L197.31-33.92Q201.34-33.92 203.26-32.64L203.26-32.64L215.81-33.92L211.46-9.34L211.46-9.34Q209.22 3.20 204.48 8.13L204.48 8.13L204.48 8.13Q199.94 12.80 191.10 12.80L191.10 12.80L191.10 12.80Q184.38 12.80 180.54 10.69L180.54 10.69L180.54 10.69Q176.70 8.58 176.70 5.06L176.70 5.06L176.70 5.06Q176.70 2.43 178.69 0.93L178.69 0.93L178.69 0.93Q180.67-0.58 183.74-0.58L183.74-0.58L183.74-0.58Q186.43-0.58 188.48 0.64L188.48 0.64L188.48 0.64Q189.70 1.28 190.27 2.18L190.27 2.18L190.27 2.18Q188.80 3.46 188.80 5.57L188.80 5.57L188.80 5.57Q188.80 8.32 191.36 8.32L191.36 8.32L191.36 8.32Q195.65 8.32 198.08-1.79L198.08-1.79L198.08-1.79Q198.78-4.54 199.36-7.30L199.36-7.30L199.36-7.30Q196.48-3.78 189.95-3.78L189.95-3.78L189.95-3.78Q185.41-3.78 182.78-5.95L182.78-5.95L182.78-5.95Q180.16-8.13 180.16-13.25L180.16-13.25L180.16-13.25Q180.16-16.45 181.25-20.06L181.25-20.06L181.25-20.06Q182.34-23.68 184.51-26.75ZM192.83-13.06L192.83-13.06L192.83-13.06Q192.83-8.70 195.07-8.70L195.07-8.70L195.07-8.70Q196.61-8.70 198.08-10.37L198.08-10.37L198.08-10.37Q199.23-11.71 199.68-13.70L199.68-13.70L202.94-30.14L202.94-30.14Q202.62-30.21 202.30-30.34L202.30-30.34L202.30-30.34Q201.66-30.59 200.83-30.59L200.83-30.59L200.83-30.59Q196.93-30.59 194.62-24.19L194.62-24.19L194.62-24.19Q192.83-19.20 192.83-13.06ZM246.85-3.52L246.85-3.52L246.85-3.52Q244.86 1.28 238.53 1.28L238.53 1.28L238.53 1.28Q235.26 1.28 233.22-0.96L233.22-0.96L233.22-0.96Q231.49-2.94 231.49-4.93L231.49-4.93L231.49-4.93Q231.49-10.11 233.86-20.22L233.86-20.22L236.22-32.64L249.22-33.92L245.31-13.70L245.31-13.70Q244.22-8.96 244.22-7.30L244.22-7.30L244.22-7.30Q244.22-3.65 246.85-3.52ZM237.38-41.54L237.38-41.54L237.38-41.54Q237.38-44.03 239.46-45.38L239.46-45.38L239.46-45.38Q241.54-46.72 244.54-46.72L244.54-46.72L244.54-46.72Q247.55-46.72 249.38-45.38L249.38-45.38L249.38-45.38Q251.20-44.03 251.20-41.54L251.20-41.54L251.20-41.54Q251.20-39.04 249.18-37.76L249.18-37.76L249.18-37.76Q247.17-36.48 244.16-36.48L244.16-36.48L244.16-36.48Q241.15-36.48 239.26-37.76L239.26-37.76L239.26-37.76Q237.38-39.04 237.38-41.54ZM271.42-22.46L271.42-22.46L271.42-22.46Q272.32-24.83 272.32-26.88L272.32-26.88L272.32-26.88Q272.32-30.66 269.25-30.66L269.25-30.66L269.25-30.66Q267.65-30.66 266.34-29.22L266.34-29.22L266.34-29.22Q265.02-27.78 265.02-25.98L265.02-25.98L265.02-25.98Q265.02-24.70 266.05-23.68L266.05-23.68L266.05-23.68Q267.52-22.27 271.30-19.97L271.30-19.97L271.30-19.97Q275.07-17.66 276.51-15.78L276.51-15.78L276.51-15.78Q277.95-13.89 277.95-11.30L277.95-11.30L277.95-11.30Q277.95-8.70 276.70-6.34L276.70-6.34L276.70-6.34Q275.46-3.97 273.22-2.30L273.22-2.30L273.22-2.30Q268.42 1.28 260.74 1.28L260.74 1.28L260.74 1.28Q256.58 1.28 253.38-0.90L253.38-0.90L253.38-0.90Q250.18-3.01 250.18-5.50L250.18-5.50L250.18-5.50Q250.18-8 252.00-9.47L252.00-9.47L252.00-9.47Q253.82-10.94 256.51-10.94L256.51-10.94L256.51-10.94Q259.20-10.94 260.86-9.92L260.86-9.92L260.86-9.92Q260.03-7.81 260.03-6.40L260.03-6.40L260.03-6.40Q260.03-2.18 263.62-2.18L263.62-2.18L263.62-2.18Q265.15-2.18 266.18-3.14L266.18-3.14L266.18-3.14Q267.20-4.10 267.20-5.76L267.20-5.76L267.20-5.76Q267.20-9.02 261.70-12.48L261.70-12.48L261.70-12.48Q257.22-15.42 256.19-16.58L256.19-16.58L256.19-16.58Q254.46-18.62 254.46-21.18L254.46-21.18L254.46-21.18Q254.46-23.74 255.68-26.18L255.68-26.18L255.68-26.18Q256.90-28.61 259.14-30.34L259.14-30.34L259.14-30.34Q263.81-33.92 271.94-33.92L271.94-33.92L271.94-33.92Q276.10-33.92 278.56-32.26L278.56-32.26L278.56-32.26Q281.02-30.59 281.02-27.78L281.02-27.78L281.02-27.78Q281.02-24.96 279.33-23.36L279.33-23.36L279.33-23.36Q277.63-21.76 274.56-21.76L274.56-21.76L274.56-21.76Q272.45-21.76 271.42-22.46ZM299.36-1.92L299.36-1.92L299.36-1.92Q297.86-3.58 297.18-6.21L297.18-6.21L297.18-6.21Q296.51-8.83 296.51-13.12L296.51-13.12L296.51-13.12Q296.51-17.41 297.98-21.31L297.98-21.31L297.98-21.31Q299.46-25.22 302.14-28.03L302.14-28.03L302.14-28.03Q307.65-33.92 316.74-33.92L316.74-33.92L316.74-33.92Q320.00-33.92 322.37-32.83L322.37-32.83L333.31-33.92L328.58-8.96L328.58-8.96Q328.38-8.19 328.38-6.78L328.38-6.78L328.38-6.78Q328.38-5.38 329.25-4.48L329.25-4.48L329.25-4.48Q330.11-3.58 331.39-3.46L331.39-3.46L331.39-3.46Q330.75-1.28 328.42 0L328.42 0L328.42 0Q326.08 1.28 323.46 1.28L323.46 1.28L323.46 1.28Q320.83 1.28 319.07 0.29L319.07 0.29L319.07 0.29Q317.31-0.70 316.80-2.37L316.80-2.37L316.80-2.37Q315.78-0.77 313.60 0.26L313.60 0.26L313.60 0.26Q311.42 1.28 308.51 1.28L308.51 1.28L308.51 1.28Q305.60 1.28 303.23 0.51L303.23 0.51L303.23 0.51Q300.86-0.26 299.36-1.92ZM312.86-27.90L312.86-27.90L312.86-27.90Q312.13-26.75 311.49-24.80L311.49-24.80L311.49-24.80Q310.85-22.85 309.79-17.63L309.79-17.63L309.79-17.63Q308.74-12.42 308.74-8.70L308.74-8.70L308.74-8.70Q308.74-4.99 309.31-3.90L309.31-3.90L309.31-3.90Q309.89-2.82 310.91-2.82L310.91-2.82L310.91-2.82Q312.96-2.82 314.46-4.77L314.46-4.77L314.46-4.77Q315.97-6.72 316.54-10.18L316.54-10.18L319.94-28.93L319.94-28.93Q318.59-30.08 317.02-30.08L317.02-30.08L317.02-30.08Q315.46-30.08 314.53-29.57L314.53-29.57L314.53-29.57Q313.60-29.06 312.86-27.90ZM360.00-31.55L360.00-31.55L360.00-31.55Q362.11-33.92 365.76-33.92L365.76-33.92L365.76-33.92Q368.00-33.92 369.73-32.70L369.73-32.70L369.73-32.70Q371.46-31.49 371.46-29.22L371.46-29.22L371.46-29.22Q371.46-26.94 370.75-24.51L370.75-24.51L370.75-24.51Q370.05-22.08 368.96-19.58L368.96-19.58L368.96-19.58Q366.78-14.72 363.78-10.69L363.78-10.69L363.78-10.69Q359.55-4.86 355.49-1.79L355.49-1.79L355.49-1.79Q351.42 1.28 347.01 1.28L347.01 1.28L347.01 1.28Q343.42 1.28 341.25 0.45L341.25 0.45L341.25 0.45Q340.86-12.99 340.38-17.79L340.38-17.79L340.38-17.79Q339.90-22.59 339.52-25.22L339.52-25.22L339.52-25.22Q338.88-30.34 336.96-31.55L336.96-31.55L336.96-31.55Q338.43-32.83 339.87-33.38L339.87-33.38L339.87-33.38Q341.31-33.92 344.29-33.92L344.29-33.92L344.29-33.92Q347.26-33.92 349.38-31.58L349.38-31.58L349.38-31.58Q351.49-29.25 351.90-25.12L351.90-25.12L351.90-25.12Q352.32-20.99 352.32-16L352.32-16L352.32-16Q352.32-11.01 351.94-4.99L351.94-4.99L351.94-4.99Q353.92-6.40 356.03-10.69L356.03-10.69L356.03-10.69Q358.91-16.64 359.94-23.81L359.94-23.81L359.94-23.81Q360.26-25.98 360.26-28.29L360.26-28.29L360.26-28.29Q360.26-30.59 360.00-31.55ZM375.97-1.92L375.97-1.92L375.97-1.92Q374.46-3.58 373.79-6.21L373.79-6.21L373.79-6.21Q373.12-8.83 373.12-13.12L373.12-13.12L373.12-13.12Q373.12-17.41 374.59-21.31L374.59-21.31L374.59-21.31Q376.06-25.22 378.75-28.03L378.75-28.03L378.75-28.03Q384.26-33.92 393.34-33.92L393.34-33.92L393.34-33.92Q396.61-33.92 398.98-32.83L398.98-32.83L409.92-33.92L405.18-8.96L405.18-8.96Q404.99-8.19 404.99-6.78L404.99-6.78L404.99-6.78Q404.99-5.38 405.86-4.48L405.86-4.48L405.86-4.48Q406.72-3.58 408.00-3.46L408.00-3.46L408.00-3.46Q407.36-1.28 405.02 0L405.02 0L405.02 0Q402.69 1.28 400.06 1.28L400.06 1.28L400.06 1.28Q397.44 1.28 395.68 0.29L395.68 0.29L395.68 0.29Q393.92-0.70 393.41-2.37L393.41-2.37L393.41-2.37Q392.38-0.77 390.21 0.26L390.21 0.26L390.21 0.26Q388.03 1.28 385.12 1.28L385.12 1.28L385.12 1.28Q382.21 1.28 379.84 0.51L379.84 0.51L379.84 0.51Q377.47-0.26 375.97-1.92ZM389.47-27.90L389.47-27.90L389.47-27.90Q388.74-26.75 388.10-24.80L388.10-24.80L388.10-24.80Q387.46-22.85 386.40-17.63L386.40-17.63L386.40-17.63Q385.34-12.42 385.34-8.70L385.34-8.70L385.34-8.70Q385.34-4.99 385.92-3.90L385.92-3.90L385.92-3.90Q386.50-2.82 387.52-2.82L387.52-2.82L387.52-2.82Q389.57-2.82 391.07-4.77L391.07-4.77L391.07-4.77Q392.58-6.72 393.15-10.18L393.15-10.18L396.54-28.93L396.54-28.93Q395.20-30.08 393.63-30.08L393.63-30.08L393.63-30.08Q392.06-30.08 391.14-29.57L391.14-29.57L391.14-29.57Q390.21-29.06 389.47-27.90ZM428.74-3.52L428.74-3.52L428.74-3.52Q426.75 1.28 420.42 1.28L420.42 1.28L420.42 1.28Q417.15 1.28 415.10-0.96L415.10-0.96L415.10-0.96Q413.38-2.94 413.38-4.93L413.38-4.93L413.38-4.93Q413.38-10.11 415.74-20.22L415.74-20.22L418.11-32.64L431.10-33.92L427.20-13.70L427.20-13.70Q426.11-8.96 426.11-7.30L426.11-7.30L426.11-7.30Q426.11-3.65 428.74-3.52ZM419.26-41.54L419.26-41.54L419.26-41.54Q419.26-44.03 421.34-45.38L421.34-45.38L421.34-45.38Q423.42-46.72 426.43-46.72L426.43-46.72L426.43-46.72Q429.44-46.72 431.26-45.38L431.26-45.38L431.26-45.38Q433.09-44.03 433.09-41.54L433.09-41.54L433.09-41.54Q433.09-39.04 431.07-37.76L431.07-37.76L431.07-37.76Q429.06-36.48 426.05-36.48L426.05-36.48L426.05-36.48Q423.04-36.48 421.15-37.76L421.15-37.76L421.15-37.76Q419.26-39.04 419.26-41.54ZM449.47-3.52L449.47-3.52L449.47-3.52Q447.49 1.28 441.15 1.28L441.15 1.28L441.15 1.28Q437.95 1.28 435.90-0.96L435.90-0.96L435.90-0.96Q434.24-2.82 434.24-4.93L434.24-4.93L434.24-4.93Q434.24-9.73 436.48-20.22L436.48-20.22L441.15-44.80L454.14-46.08L447.94-13.70L447.94-13.70Q446.85-8.96 446.85-7.30L446.85-7.30L446.85-7.30Q446.85-3.65 449.47-3.52ZM457.70-1.92L457.70-1.92L457.70-1.92Q456.19-3.58 455.52-6.21L455.52-6.21L455.52-6.21Q454.85-8.83 454.85-13.12L454.85-13.12L454.85-13.12Q454.85-17.41 456.32-21.31L456.32-21.31L456.32-21.31Q457.79-25.22 460.48-28.03L460.48-28.03L460.48-28.03Q465.98-33.92 475.07-33.92L475.07-33.92L475.07-33.92Q478.34-33.92 480.70-32.83L480.70-32.83L491.65-33.92L486.91-8.96L486.91-8.96Q486.72-8.19 486.72-6.78L486.72-6.78L486.72-6.78Q486.72-5.38 487.58-4.48L487.58-4.48L487.58-4.48Q488.45-3.58 489.73-3.46L489.73-3.46L489.73-3.46Q489.09-1.28 486.75 0L486.75 0L486.75 0Q484.42 1.28 481.79 1.28L481.79 1.28L481.79 1.28Q479.17 1.28 477.41 0.29L477.41 0.29L477.41 0.29Q475.65-0.70 475.14-2.37L475.14-2.37L475.14-2.37Q474.11-0.77 471.94 0.26L471.94 0.26L471.94 0.26Q469.76 1.28 466.85 1.28L466.85 1.28L466.85 1.28Q463.94 1.28 461.57 0.51L461.57 0.51L461.57 0.51Q459.20-0.26 457.70-1.92ZM471.20-27.90L471.20-27.90L471.20-27.90Q470.46-26.75 469.82-24.80L469.82-24.80L469.82-24.80Q469.18-22.85 468.13-17.63L468.13-17.63L468.13-17.63Q467.07-12.42 467.07-8.70L467.07-8.70L467.07-8.70Q467.07-4.99 467.65-3.90L467.65-3.90L467.65-3.90Q468.22-2.82 469.25-2.82L469.25-2.82L469.25-2.82Q471.30-2.82 472.80-4.77L472.80-4.77L472.80-4.77Q474.30-6.72 474.88-10.18L474.88-10.18L478.27-28.93L478.27-28.93Q476.93-30.08 475.36-30.08L475.36-30.08L475.36-30.08Q473.79-30.08 472.86-29.57L472.86-29.57L472.86-29.57Q471.94-29.06 471.20-27.90ZM494.27-3.07L494.27-3.07L502.21-44.80L515.20-46.08L513.22-36.29L513.22-36.29Q512.51-33.28 511.62-31.17L511.62-31.17L511.62-31.17Q513.02-32.96 516.10-33.66L516.10-33.66L516.10-33.66Q516.99-33.92 518.08-33.92L518.08-33.92L518.08-33.92Q524.03-33.92 527.30-30.30L527.30-30.30L527.30-30.30Q530.56-26.69 530.56-19.71L530.56-19.71L530.56-19.71Q530.56-10.62 525.38-4.93L525.38-4.93L525.38-4.93Q519.81 1.28 509.70 1.28L509.70 1.28L509.70 1.28Q502.72 1.28 497.47-1.02L497.47-1.02L497.47-1.02Q495.62-1.86 494.27-3.07ZM510.53-22.40L507.14-3.65L507.14-3.65Q508.48-2.50 510.14-2.50L510.14-2.50L510.14-2.50Q511.81-2.50 512.77-3.14L512.77-3.14L512.77-3.14Q513.73-3.78 514.43-5.06L514.43-5.06L514.43-5.06Q516.35-8.51 517.89-19.07L517.89-19.07L517.89-19.07Q518.34-22.08 518.34-25.09L518.34-25.09L518.34-25.09Q518.34-28.10 517.66-29.06L517.66-29.06L517.66-29.06Q516.99-30.02 515.71-30.02L515.71-30.02L515.71-30.02Q511.81-30.02 510.53-22.40L510.53-22.40ZM549.70-3.52L549.70-3.52L549.70-3.52Q547.71 1.28 541.38 1.28L541.38 1.28L541.38 1.28Q538.18 1.28 536.13-0.96L536.13-0.96L536.13-0.96Q534.46-2.82 534.46-4.93L534.46-4.93L534.46-4.93Q534.46-9.73 536.70-20.22L536.70-20.22L541.38-44.80L554.37-46.08L548.16-13.70L548.16-13.70Q547.07-8.96 547.07-7.30L547.07-7.30L547.07-7.30Q547.07-3.65 549.70-3.52ZM581.06-10.82L581.06-10.82L581.06-10.82Q582.66-9.73 582.66-7.33L582.66-7.33L582.66-7.33Q582.66-4.93 581.44-3.39L581.44-3.39L581.44-3.39Q580.22-1.86 578.24-0.83L578.24-0.83L578.24-0.83Q574.14 1.28 569.73 1.28L569.73 1.28L569.73 1.28Q565.31 1.28 562.72 0.32L562.72 0.32L562.72 0.32Q560.13-0.64 558.40-2.43L558.40-2.43L558.40-2.43Q555.01-5.82 555.01-12.03L555.01-12.03L555.01-12.03Q555.01-21.70 560.26-27.58L560.26-27.58L560.26-27.58Q565.89-33.92 575.68-33.92L575.68-33.92L575.68-33.92Q581.76-33.92 584.77-31.36L584.77-31.36L584.77-31.36Q587.01-29.44 587.01-26.30L587.01-26.30L587.01-26.30Q587.01-15.04 567.55-15.04L567.55-15.04L567.55-15.04Q567.30-13.38 567.30-11.97L567.30-11.97L567.30-11.97Q567.30-9.02 568.61-7.90L568.61-7.90L568.61-7.90Q569.92-6.78 572.35-6.78L572.35-6.78L572.35-6.78Q574.78-6.78 577.38-7.90L577.38-7.90L577.38-7.90Q579.97-9.02 581.06-10.82ZM568.00-17.79L568.00-17.79L568.00-17.79Q572.54-17.79 575.17-20.61L575.17-20.61L575.17-20.61Q577.79-23.30 577.79-27.58L577.79-27.58L577.79-27.58Q577.79-29.06 577.25-29.86L577.25-29.86L577.25-29.86Q576.70-30.66 575.62-30.66L575.62-30.66L575.62-30.66Q574.53-30.66 573.60-30.24L573.60-30.24L573.60-30.24Q572.67-29.82 571.71-28.42L571.71-28.42L571.71-28.42Q569.34-25.22 568.00-17.79Z" fill="#5b8adc"></path></g></g><style>text {
  font-size: 64px;
  font-family: Arial Black;
  dominant-baseline: central;
  text-anchor: middle;
}</style></svg>