<svg xmlns="http://www.w3.org/2000/svg" version="1.1" width="51" height="50" style=""><rect id="backgroundrect" width="100%" height="100%" x="0" y="0" fill="none" stroke="none" style="" class=""/>
<title>resize</title>

<g class="currentLayer" style=""><title>Layer 1</title><path d="M25.99 6.042l-0.004 9.735-3.732-3.733-4.454 4.455-2.665-2.665 4.454-4.454-3.384-3.383 9.785 0.045zM11.494 22.805l3.238 3.182-9.722 0.017 0.004-9.68 3.815 3.815 4.925-4.924 2.665 2.665-4.925 4.925z" id="svg_1" class="" transform="rotate(-90.5828628540039 15.5,16.000499725341797) "/><path d="M42.402515561352736,47.79739753265576 h-4.56780110502243 c-3.0280928673744203,0 -5.481544624626636,-2.3454317030906675 -5.481544624626636,-5.238247578859329 v-7.857809275627136 h5.539283683538437 v1.7463744645118717 c0,0.9642719585895542 0.7606891888380056,1.7454986498355867 1.7706644732952117,1.7454986498355867 h0.9128270266056063 c1.0099752844572067,0 1.8274870392084122,-0.7821025059223174 1.8274870392084122,-1.7454986498355867 v-1.7463744645118717 h5.538367190539837 v7.857809275627136 c0,2.8928158757686613 -2.5121073091626167,5.238247578859329 -5.539283683538437,5.238247578859329 zM42.402515561352736,32.954966213657414 c0,-0.9642719585895542 -0.8184282477498058,-1.7463744645118717 -1.8274870392084122,-1.7463744645118717 v0 v-5.1839470689296725 c0,0 -1.198772842168808,-0.05430050992965706 1.7706644732952117,-0.05430050992965706 s5.596106249451637,1.8549754843711856 5.596106249451637,5.238247578859329 c0,1.7367405030727388 0,2.362947996616364 0,2.564385372161865 h-5.539283683538437 v-0.8180109076499942 zM39.72818899143791,25.379169263793983 c0,-1.6876948812007908 -0.8312591497302053,-2.62744402885437 -2.4956104351878166,-2.62744402885437 c-1.7605830503106117,0 -3.1078277582526206,1.2121275119781496 -4.040817630827426,3.6355067212581633 l-0.19154703670740153,0.4965869214534765 c-1.0915431613326074,2.8332604777812955 -2.691739936888218,4.250328624010086 -4.797840847671032,4.250328624010086 c-0.8505055027008057,0 -1.6441884394884114,-0.310038395404816 -2.381965303361416,-0.9283635568618774 s-1.1062070493102074,-1.2839443154335022 -1.1062070493102074,-1.9959816472530365 c0,-0.3520774998664858 0.17230068373680124,-0.5289920644760135 0.5187350372076038,-0.5289920644760135 c0.23370571464300155,0 0.47474337327480337,0.28113651108741794 0.7231129758954046,0.8425337185859684 c0.45091455531120334,1.0369645767211912 1.204271800160408,1.5554468650817872 2.258238748550415,1.5554468650817872 c0.7982654017806055,0 1.4508084167838098,-0.24610392403602604 1.959462031006813,-0.740063401460648 s1.0869606963396072,-1.4415909571647654 1.7340047533512122,-2.8455218832492832 l0.41792080736160303,-0.8854486377239229 c1.227184125125408,-2.6204375114440923 2.8805374945998192,-3.930656267166138 4.9573106294274325,-3.930656267166138 c2.380132317364216,0 3.569740229547024,1.2979573502540591 3.569740229547024,3.7020686366558078 h-1.1245369092822075 zM41.48877204174853,33.39112192244724 v2.618685882091522 c0,0.723422922611237 -0.6131338160634052,1.309342941045761 -1.3701570329070092,1.309342941045761 s-1.3701570329070092,-0.5859200184345256 -1.3701570329070092,-1.309342941045761 v-2.618685882091522 c0,-0.723422922611237 0.6131338160634052,-1.3102187557220464 1.3701570329070092,-1.3102187557220464 s1.3701570329070092,0.5867958331108106 1.3701570329070092,1.3102187557220464 zM37.891537022243504,25.970344170286214 c2.9685208224654196,0 1.826570546209812,0.05430050992965706 1.826570546209812,0.05430050992965706 v5.1839470689296725 c-1.0090587914586067,0 -1.826570546209812,0.7821025059223174 -1.826570546209812,1.7463744645118717 v0.8188867223262787 h-5.539283683538437 c0,-0.20143737554550178 0,-0.8276448690891272 0,-2.564385372161865 c0,-3.3841479091644286 2.5698463680744172,-5.239123393535614 5.539283683538437,-5.239123393535614 z" class="" id="svg_5"/></g></svg>